<?xml version="1.0" encoding="UTF-8"?>
<svg version="1.1" xmlns="http://www.w3.org/2000/svg" width="512" height="512">
<path d="M0 0 C7.63576132 4.63354996 12.87903366 10.57729713 15.78515625 19.109375 C17.38657049 28.17337958 17.46312627 38.52186852 12.17578125 46.3203125 C6.60184175 54.0532716 -0.29127019 59.57260526 -9.82421875 61.3203125 C-21.05730914 62.2013392 -29.08780553 60.45867671 -37.8125 53.2109375 C-43.13898633 48.20507462 -44.76556674 44.52559452 -46.82421875 37.3203125 C-57.05421875 37.3203125 -67.28421875 37.3203125 -77.82421875 37.3203125 C-77.82421875 69.9903125 -77.82421875 102.6603125 -77.82421875 136.3203125 C-76.17421875 136.9803125 -74.52421875 137.6403125 -72.82421875 138.3203125 C-70.20239782 141.69122513 -70.54461262 145.19612203 -70.82421875 149.3203125 C-71.36535211 151.71809309 -72.05961019 153.97869879 -72.82421875 156.3203125 C-72.19515625 156.72121094 -71.56609375 157.12210938 -70.91796875 157.53515625 C-63.76210294 162.28777195 -55.99270953 167.6463494 -53.82421875 176.3203125 C-32.37421875 176.3203125 -10.92421875 176.3203125 11.17578125 176.3203125 C10.84578125 165.7603125 10.51578125 155.2003125 10.17578125 144.3203125 C6.87578125 142.6703125 3.57578125 141.0203125 0.17578125 139.3203125 C-7.02832787 133.41530503 -11.20244281 126.78539573 -12.26953125 117.40625 C-12.73677722 107.34496623 -11.03884918 99.15389047 -4.82421875 91.0703125 C1.30063019 84.60446555 9.83517917 80.60007413 18.73828125 80.21484375 C29.59423402 80.68457248 37.92259948 84.22352518 45.4140625 92.09765625 C51.74442013 100.0842937 53.04428074 109.41207887 52.17578125 119.3203125 C49.65365695 129.37998542 43.99075917 136.58573693 35.421875 142.19140625 C32.99992384 143.40869996 30.83005012 143.8372438 28.17578125 144.3203125 C28.18688431 144.87519348 28.19798737 145.43007446 28.20942688 146.00177002 C28.32003754 151.77656966 28.39545477 157.55106853 28.45043945 163.32666016 C28.47558522 165.48205792 28.50970649 167.63737041 28.55297852 169.79248047 C28.61362633 172.89051342 28.64199037 175.98741931 28.6640625 179.0859375 C28.68986893 180.04961243 28.71567535 181.01328735 28.74226379 182.00616455 C28.74264145 182.90679626 28.7430191 183.80742798 28.7434082 184.73535156 C28.75451126 185.52588928 28.76561432 186.316427 28.77705383 187.13092041 C27.84207559 190.53542283 26.16298073 191.54118447 23.17578125 193.3203125 C19.7651825 193.80133057 19.7651825 193.80133057 15.81518555 193.77441406 C15.09269119 193.77499817 14.37019684 193.77558228 13.62580872 193.77618408 C11.25004152 193.77340884 8.87554657 193.74234575 6.5 193.7109375 C4.84805486 193.70347306 3.19610085 193.69778109 1.54414368 193.69378662 C-2.79453161 193.67854612 -7.13266754 193.63927841 -11.47113037 193.5949707 C-15.90190333 193.55398354 -20.33276381 193.53576828 -24.76367188 193.515625 C-33.45076778 193.47278221 -42.13742609 193.40455061 -50.82421875 193.3203125 C-51.14486447 194.75643606 -51.46509716 196.19265184 -51.78515625 197.62890625 C-51.96353027 198.42868896 -52.1419043 199.22847168 -52.32568359 200.05249023 C-52.85695384 202.4692235 -53.35402198 204.89096253 -53.82421875 207.3203125 C-53.31632812 207.7328125 -52.8084375 208.1453125 -52.28515625 208.5703125 C-44.22045872 215.33620107 -39.02258062 222.19843787 -35.82421875 232.3203125 C-35.82421875 232.9803125 -35.82421875 233.6403125 -35.82421875 234.3203125 C-30.54421875 234.3203125 -25.26421875 234.3203125 -19.82421875 234.3203125 C-19.43234375 232.9384375 -19.04046875 231.5565625 -18.63671875 230.1328125 C-17.17046965 225.78202661 -15.58913952 223.122114 -11.82421875 220.3203125 C-8.42531549 219.30787323 -6.2482596 219.24242745 -2.76171875 219.8828125 C0.73866656 220.40414648 2.15578165 220.148207 5.17578125 218.3203125 C6.56516202 216.35883376 7.90182235 214.35864674 9.17578125 212.3203125 C13.05981195 209.7309587 15.05519466 210.22127845 19.54296875 210.77734375 C28.73280438 212.67257691 34.76443706 218.32078529 39.84375 225.90625 C44.36367473 234.09778515 44.54312443 244.31487912 42.48828125 253.33984375 C39.25543418 262.10894142 33.54166193 268.21426445 25.17578125 272.3203125 C16.98957305 275.57878923 7.1367883 275.77319274 -1.19921875 272.8203125 C-7.16338967 269.98212135 -13.36344494 265.88480634 -15.93359375 259.61328125 C-16.248125 258.71222656 -16.56265625 257.81117188 -16.88671875 256.8828125 C-17.82931797 254.25042933 -17.82931797 254.25042933 -19.82421875 252.3203125 C-25.21569486 251.12523834 -30.32566636 251.10062886 -35.82421875 251.3203125 C-35.94796875 251.91457031 -36.07171875 252.50882813 -36.19921875 253.12109375 C-39.46018211 266.22609027 -48.35580562 275.12351783 -59.625 282.0390625 C-60.35074219 282.461875 -61.07648438 282.8846875 -61.82421875 283.3203125 C-61.32921875 284.0834375 -60.83421875 284.8465625 -60.32421875 285.6328125 C-58.82421875 288.3203125 -58.82421875 288.3203125 -58.82421875 291.3203125 C-57.79549149 291.31143005 -56.76676422 291.30254761 -55.7068634 291.293396 C-46.01054376 291.21229781 -36.31429295 291.15234116 -26.61771107 291.11306381 C-21.63261082 291.09219199 -16.64778443 291.06388163 -11.6628418 291.01855469 C-6.85177101 290.97508265 -2.04096358 290.95117234 2.77028847 290.94080353 C4.60552428 290.9334146 6.44074572 290.9189857 8.27586937 290.89739227 C10.84723393 290.86833993 13.4175113 290.86435721 15.98901367 290.86621094 C16.74714859 290.85182983 17.50528351 290.83744873 18.28639221 290.82263184 C21.86651775 290.85054525 24.03543144 291.23801401 27.14624023 293.06213379 C29.43044556 295.60366599 29.80691863 296.54861472 29.83520508 299.90527344 C29.85484818 300.80590515 29.87449127 301.70653687 29.89472961 302.63446045 C29.88883064 304.07997284 29.88883064 304.07997284 29.8828125 305.5546875 C29.89793381 306.54784973 29.91305511 307.54101196 29.92863464 308.56427002 C29.97158702 311.73318044 29.98035712 314.9011397 29.98828125 318.0703125 C30.01141962 320.2200775 30.03678357 322.36981979 30.06445312 324.51953125 C30.12737945 329.78646727 30.16225407 335.05303048 30.17578125 340.3203125 C30.85342529 340.64499512 31.53106934 340.96967773 32.22924805 341.30419922 C33.56983276 341.95799561 33.56983276 341.95799561 34.9375 342.625 C35.82139404 343.05280762 36.70528809 343.48061523 37.6159668 343.92138672 C44.31821988 347.58413447 48.38713256 353.10819678 51.29296875 360.09375 C53.68526551 368.83727708 53.47445238 378.91976581 49.484375 387.1484375 C44.14541094 396.00952412 36.77569938 401.27372037 26.6953125 403.98828125 C17.46569444 405.20458751 8.84718133 403.60505478 1.17578125 398.3203125 C-5.86004145 392.72335822 -10.01024844 386.13822372 -11.82421875 377.3203125 C-12.85948017 366.84889782 -10.31274659 357.36375759 -3.671875 349.109375 C0.5049223 345.06503428 5.68026814 342.1521502 11.17578125 340.3203125 C11.50578125 329.7603125 11.83578125 319.2003125 12.17578125 308.3203125 C-22.47421875 308.8153125 -22.47421875 308.8153125 -57.82421875 309.3203125 C-59.47421875 312.2903125 -61.12421875 315.2603125 -62.82421875 318.3203125 C-66.79667034 324.10874196 -71.78278354 327.01218681 -77.82421875 330.3203125 C-77.49421875 331.4546875 -77.16421875 332.5890625 -76.82421875 333.7578125 C-75.57363495 338.75127829 -74.96810054 344.14319276 -76.32482815 349.17811203 C-76.84608895 351.41412756 -76.96266455 353.38002544 -76.98243713 355.67364502 C-76.99712036 356.96925858 -76.99712036 356.96925858 -77.01210022 358.29104614 C-77.01785568 359.23044037 -77.02361115 360.16983459 -77.02954102 361.13769531 C-77.03944061 362.13314362 -77.04934021 363.12859192 -77.05953979 364.15420532 C-77.0911227 367.4439252 -77.11589964 370.73365952 -77.140625 374.0234375 C-77.16119729 376.30458959 -77.18219384 378.58573789 -77.20359802 380.86688232 C-77.25879025 386.87065563 -77.30821215 392.87446318 -77.35644531 398.8782959 C-77.40668109 405.00483243 -77.46235633 411.13131924 -77.51757812 417.2578125 C-77.62512489 429.27860494 -77.72607501 441.29943961 -77.82421875 453.3203125 C-67.59421875 453.3203125 -57.36421875 453.3203125 -46.82421875 453.3203125 C-46.16421875 451.0103125 -45.50421875 448.7003125 -44.82421875 446.3203125 C-40.29835246 438.48467142 -33.78778951 433.38066263 -25.51171875 429.9453125 C-15.13903055 428.18722976 -5.40990487 428.78001012 3.46484375 434.8984375 C8.06984032 438.72731105 13.32702132 443.32438077 14.6171875 449.3984375 C14.82148648 452.95719387 14.44422036 454.96239369 12.30078125 457.8203125 C10.17578125 459.3203125 10.17578125 459.3203125 8.17578125 459.3203125 C8.50578125 460.3103125 8.83578125 461.3003125 9.17578125 462.3203125 C9.03969673 463.90889101 8.84596148 465.49298546 8.61328125 467.0703125 C8.17247899 470.72419149 8.21115939 472.43823964 9.30078125 476.0703125 C10.17578125 479.3203125 10.17578125 479.3203125 9.36328125 482.3828125 C5.08794838 488.12397378 -0.96143011 491.49135416 -7.82421875 493.3203125 C-19.22090578 494.3359758 -27.97990731 493.42996824 -37.07421875 486.0703125 C-41.59006981 481.88796741 -44.87530078 477.1670664 -46.82421875 471.3203125 C-48.07033936 471.30572998 -49.31645996 471.29114746 -50.6003418 471.27612305 C-55.23181587 471.2180695 -59.86280737 471.14083674 -64.49389648 471.05786133 C-66.49674639 471.02464523 -68.49968915 470.99660298 -70.50268555 470.97387695 C-73.38500469 470.94027016 -76.26647543 470.88795102 -79.1484375 470.83203125 C-80.0413298 470.82564133 -80.93422211 470.8192514 -81.85417175 470.81266785 C-86.63009325 470.7001919 -89.96650843 470.45930238 -93.82421875 467.3203125 C-95.51513444 463.93848112 -95.00522983 460.09446783 -95.02954102 456.37255859 C-95.03944061 455.44567734 -95.04934021 454.51879608 -95.05953979 453.56382751 C-95.09120695 450.49049461 -95.11593283 447.41714622 -95.140625 444.34375 C-95.16119002 442.21668082 -95.18218637 440.08961576 -95.20359802 437.96255493 C-95.25886533 432.35660134 -95.30825405 426.75061058 -95.35644531 421.14459229 C-95.40662635 415.42709027 -95.46233013 409.7096424 -95.51757812 403.9921875 C-95.62521668 392.7682754 -95.72664897 381.54431633 -95.82421875 370.3203125 C-96.92451416 370.64628418 -98.02480957 370.97225586 -99.15844727 371.30810547 C-102.28777587 372.17218781 -104.56439605 372.54369166 -107.76171875 372.4453125 C-108.53386719 372.42726563 -109.30601562 372.40921875 -110.1015625 372.390625 C-110.95427734 372.35582031 -110.95427734 372.35582031 -111.82421875 372.3203125 C-111.90671875 373.0215625 -111.98921875 373.7228125 -112.07421875 374.4453125 C-113.89992139 381.4438393 -119.13468751 386.20065192 -124.82421875 390.3203125 C-131.52979663 393.97589847 -137.31079747 395.47620464 -144.94921875 395.5703125 C-146.18929687 395.59609375 -147.429375 395.621875 -148.70703125 395.6484375 C-152.82421875 395.3203125 -152.82421875 395.3203125 -162.82421875 392.3203125 C-163.15421875 401.5603125 -163.48421875 410.8003125 -163.82421875 420.3203125 C-159.36921875 421.8053125 -159.36921875 421.8053125 -154.82421875 423.3203125 C-147.88344827 427.68592451 -143.53581277 434.08207968 -140.51171875 441.5703125 C-138.77937364 451.01946767 -139.16649718 459.7665879 -143.82421875 468.3203125 C-149.3432123 476.00786933 -154.87517172 480.33729682 -163.82421875 483.3203125 C-174.99982633 484.09410599 -184.46470598 483.74329684 -193.63671875 476.5703125 C-199.70727855 470.90063872 -203.42073774 463.84774473 -204.16015625 455.55078125 C-204.41512628 444.19277221 -202.6163216 436.58019106 -194.7578125 428.11328125 C-190.54460895 424.2064925 -186.39329026 421.71258038 -180.82421875 420.3203125 C-181.15421875 411.0803125 -181.48421875 401.8403125 -181.82421875 392.3203125 C-184.79421875 393.3103125 -187.76421875 394.3003125 -190.82421875 395.3203125 C-202.31056987 396.56785161 -212.48786769 395.22093301 -222.13671875 388.5703125 C-226.8569223 384.73393307 -230.9757596 380.22931529 -232.69921875 374.3203125 C-232.74046875 373.6603125 -232.78171875 373.0003125 -232.82421875 372.3203125 C-233.39269531 372.34351563 -233.96117187 372.36671875 -234.546875 372.390625 C-235.31902344 372.40867187 -236.09117187 372.42671875 -236.88671875 372.4453125 C-237.64082031 372.46851563 -238.39492187 372.49171875 -239.171875 372.515625 C-242.55608954 372.26641922 -245.57826928 371.28195207 -248.82421875 370.3203125 C-248.8153363 371.49937668 -248.80645386 372.67844086 -248.79730225 373.89323425 C-248.71623161 385.00231239 -248.65626054 396.11133054 -248.61697006 407.22063732 C-248.59609136 412.93212903 -248.56776809 418.64338202 -248.52246094 424.35473633 C-248.47901397 429.86605998 -248.45508378 435.37715395 -248.44470978 440.88863564 C-248.4373164 442.99181039 -248.42287894 445.09497251 -248.40129852 447.19804955 C-248.37228025 450.14297063 -248.36826214 453.08694147 -248.37011719 456.03198242 C-248.34854553 457.33749809 -248.34854553 457.33749809 -248.32653809 458.66938782 C-248.35441577 462.75683832 -248.49708029 464.80159846 -250.7276001 468.33833313 C-254.53396503 471.93657298 -257.95967082 471.47362486 -262.94921875 471.4453125 C-263.77075439 471.44337891 -264.59229004 471.44144531 -265.4387207 471.43945312 C-276.24258543 471.36728704 -287.03431034 470.84117597 -297.82421875 470.3203125 C-298.12070312 471.24972656 -298.4171875 472.17914063 -298.72265625 473.13671875 C-301.43359303 480.97151831 -307.07832152 486.83436633 -314.3671875 490.65234375 C-324.10675643 494.62968575 -333.5494796 494.64261172 -343.28515625 490.64453125 C-351.57521892 486.32094472 -356.68674604 479.61310208 -360.13671875 471.0703125 C-362.03560697 460.71274039 -361.35852877 450.89730673 -355.24609375 442.03125 C-350.12078439 435.86702658 -344.61749847 431.44321307 -336.82421875 429.3203125 C-325.72444603 428.32179738 -316.08973215 428.97084048 -307.01171875 436.0703125 C-301.69474212 441.04790764 -298.7887212 446.09680476 -297.82421875 453.3203125 C-295.86742187 453.30291016 -295.86742187 453.30291016 -293.87109375 453.28515625 C-292.1054702 453.27576464 -290.33984508 453.26666593 -288.57421875 453.2578125 C-287.72085938 453.24943359 -286.8675 453.24105469 -285.98828125 453.23242188 C-281.1206989 453.21425925 -276.32812116 453.40264993 -271.47753906 453.82641602 C-270.41384094 453.91834732 -269.35014282 454.01027863 -268.25421143 454.10499573 C-267.45231384 454.17605026 -266.65041626 454.2471048 -265.82421875 454.3203125 C-265.90880056 441.34142805 -266.00375272 428.36266413 -266.11174583 415.38395214 C-266.16157606 409.35665858 -266.2079069 403.32938142 -266.24609375 397.30200195 C-266.28311466 391.4793616 -266.32951938 385.6568631 -266.38228226 379.83434486 C-266.40073721 377.61896581 -266.41587757 375.40355644 -266.42756271 373.18813133 C-266.44457828 370.07213355 -266.47364878 366.95645438 -266.50537109 363.84057617 C-266.50753128 362.93569962 -266.50969147 362.03082306 -266.51191711 361.098526 C-266.58448553 355.47589756 -267.26490733 350.22270671 -268.42157936 344.71796131 C-268.9598338 341.51274806 -268.61931824 338.79717122 -267.94921875 335.6328125 C-267.74554688 334.61832031 -267.541875 333.60382813 -267.33203125 332.55859375 C-267.08066406 331.45064453 -267.08066406 331.45064453 -266.82421875 330.3203125 C-267.38109375 329.99160156 -267.93796875 329.66289062 -268.51171875 329.32421875 C-277.37012954 323.80267554 -282.91608244 318.49878959 -285.82421875 308.3203125 C-309.25421875 308.3203125 -332.68421875 308.3203125 -356.82421875 308.3203125 C-356.11329401 324.34132061 -356.11329401 324.34132061 -354.82421875 340.3203125 C-352.81453778 342.37102211 -352.81453778 342.37102211 -350.07421875 343.1328125 C-345.6514625 344.92837594 -342.97158861 346.61752443 -339.82421875 350.3203125 C-339.12296875 351.1040625 -338.42171875 351.8878125 -337.69921875 352.6953125 C-332.54579761 359.91010209 -331.08119652 367.65171977 -331.82421875 376.3203125 C-333.57746097 385.91857076 -338.43270291 392.99945479 -345.98828125 399.0703125 C-353.0115002 403.85207859 -361.71631944 405.07588196 -370.01953125 403.84765625 C-375.42316703 402.63283396 -379.92437197 401.48911423 -383.82421875 397.3203125 C-385.06359601 394.84155797 -384.82452172 393.32697782 -384.69921875 390.5703125 C-384.63377369 386.04151416 -385.46284638 383.25593312 -387.82421875 379.3203125 C-387.82421875 378.6603125 -387.82421875 378.0003125 -387.82421875 377.3203125 C-388.77296875 377.2171875 -389.72171875 377.1140625 -390.69921875 377.0078125 C-393.82421875 376.3203125 -393.82421875 376.3203125 -395.82421875 373.3203125 C-397.07975064 365.23235128 -394.9554412 358.71195108 -390.28125 352.15625 C-385.77520729 346.65001017 -380.61111504 342.58261126 -373.82421875 340.3203125 C-373.83469238 339.03866211 -373.84516602 337.75701172 -373.85595703 336.43652344 C-373.89216273 331.68052973 -373.91512137 326.9245482 -373.93408203 322.16845703 C-373.94413829 320.11016796 -373.95778504 318.05189317 -373.97509766 315.99365234 C-373.99936229 313.03479487 -374.01070563 310.07612633 -374.01953125 307.1171875 C-374.02985382 306.19726013 -374.04017639 305.27733276 -374.05081177 304.32952881 C-374.05096283 303.4689386 -374.05111389 302.60834839 -374.05126953 301.72167969 C-374.05571075 300.96667175 -374.06015198 300.21166382 -374.06472778 299.43377686 C-373.7798172 296.93013548 -373.22530333 295.4176318 -371.82421875 293.3203125 C-368.27240932 290.63362589 -364.10789926 291.01371062 -359.84277344 291.00146484 C-359.04239655 290.99141922 -358.24201965 290.9813736 -357.41738892 290.97102356 C-354.77696437 290.94018051 -352.13664127 290.92315336 -349.49609375 290.90625 C-347.66334154 290.88753925 -345.83059794 290.86796591 -343.99786377 290.8475647 C-339.17778607 290.79622767 -334.35768044 290.75661033 -329.53747559 290.71942139 C-324.61736126 290.67939162 -319.69736329 290.62829458 -314.77734375 290.578125 C-305.12638381 290.4813471 -295.47535818 290.39694823 -285.82421875 290.3203125 C-285.56737305 289.77761719 -285.31052734 289.23492187 -285.04589844 288.67578125 C-284.69946289 287.96035156 -284.35302734 287.24492187 -283.99609375 286.5078125 C-283.65674805 285.80011719 -283.31740234 285.09242188 -282.96777344 284.36328125 C-281.33177983 281.4405668 -279.31750567 279.53656754 -276.82421875 277.3203125 C-278.7766706 276.12316695 -280.73636872 274.93783176 -282.69921875 273.7578125 C-283.78976562 273.09652344 -284.8803125 272.43523437 -286.00390625 271.75390625 C-286.93460937 271.28082031 -287.8653125 270.80773437 -288.82421875 270.3203125 C-289.48421875 270.6503125 -290.14421875 270.9803125 -290.82421875 271.3203125 C-294.29985604 271.70649442 -296.28278663 271.61083705 -299.38671875 269.9453125 C-304.32813677 264.6237854 -306.86523502 258.47099555 -307.82421875 251.3203125 C-312.64725886 251.0984135 -317.12389241 251.14254194 -321.82421875 252.3203125 C-323.81653489 254.64167633 -324.58908143 256.75374861 -325.64453125 259.61328125 C-328.36502425 265.85600195 -334.43804951 269.95975609 -340.44921875 272.8203125 C-348.38224458 275.59253994 -358.0093915 275.90568887 -365.82421875 272.6328125 C-367.17918506 271.9006731 -368.51476739 271.13105224 -369.82421875 270.3203125 C-370.44683594 269.9696875 -371.06945312 269.6190625 -371.7109375 269.2578125 C-378.56639097 264.97501293 -382.76545935 258.02890934 -384.82421875 250.3203125 C-385.72516993 240.21080215 -385.49242247 231.48189893 -379.17578125 223.14453125 C-372.72259298 215.43733915 -366.63979804 210.9811689 -356.48046875 209.99609375 C-346.25254225 209.67369172 -338.98610774 211.46612144 -331.01171875 217.9453125 C-326.63258233 222.07598728 -323.90699547 226.68948901 -321.82421875 232.3203125 C-321.82421875 232.9803125 -321.82421875 233.6403125 -321.82421875 234.3203125 C-317.20421875 234.3203125 -312.58421875 234.3203125 -307.82421875 234.3203125 C-307.54578125 232.4021875 -307.54578125 232.4021875 -307.26171875 230.4453125 C-305.26854486 221.51813932 -298.61857123 214.1824583 -291.82421875 208.3203125 C-291.16421875 207.9903125 -290.50421875 207.6603125 -289.82421875 207.3203125 C-290.04078125 206.72863281 -290.25734375 206.13695312 -290.48046875 205.52734375 C-290.75890625 204.73714844 -291.03734375 203.94695312 -291.32421875 203.1328125 C-291.60265625 202.35550781 -291.88109375 201.57820312 -292.16796875 200.77734375 C-292.86109223 198.18225644 -292.87093702 195.99298687 -292.82421875 193.3203125 C-293.75494202 193.32697433 -294.68566528 193.33363617 -295.64459229 193.34049988 C-304.41413052 193.4013048 -313.183626 193.44628212 -321.95332718 193.47574902 C-326.46197544 193.49140752 -330.97045356 193.51264912 -335.47900391 193.54663086 C-339.82970605 193.5792178 -344.18024451 193.59716412 -348.53105927 193.60494423 C-350.19126716 193.61048894 -351.85146606 193.6213164 -353.51160431 193.63750267 C-355.83638393 193.65926847 -358.1604865 193.66227984 -360.48535156 193.66088867 C-361.17227585 193.6716745 -361.85920013 193.68246033 -362.56694031 193.693573 C-365.56586828 193.67414427 -367.57869221 193.45698002 -370.22039795 191.98652649 C-372.91994444 189.18195997 -372.94788497 186.45848311 -372.93774414 182.75708008 C-372.93766861 181.83635208 -372.93759308 180.91562408 -372.93751526 179.96699524 C-372.93235397 178.97628525 -372.92719269 177.98557526 -372.921875 176.96484375 C-372.92046005 175.94807053 -372.9190451 174.9312973 -372.91758728 173.88371277 C-372.91198582 170.63338286 -372.89943307 167.38312162 -372.88671875 164.1328125 C-372.88170394 161.93033954 -372.877141 159.72786549 -372.87304688 157.52539062 C-372.86201592 152.12367446 -372.84527637 146.72199838 -372.82421875 141.3203125 C-373.92362793 141.02842041 -375.02303711 140.73652832 -376.15576172 140.43579102 C-383.5460045 138.18861816 -389.11029914 132.11928336 -392.88671875 125.5078125 C-397.13382026 117.2100946 -397.14274775 107.37355947 -394.32421875 98.5703125 C-390.63263152 89.71566622 -384.76010895 84.15715387 -376.12109375 80.1953125 C-367.24482043 76.81387504 -358.03735422 77.50366571 -349.3125 81.0390625 C-345.09308054 83.21169921 -340.9875072 85.9937356 -338.82421875 90.3203125 C-338.47110302 96.67639559 -338.47110302 96.67639559 -339.88671875 99.2578125 C-341.42566601 102.64349647 -340.42623284 105.70822795 -339.82421875 109.3203125 C-339.22609375 109.4234375 -338.62796875 109.5265625 -338.01171875 109.6328125 C-335.32244985 110.4780113 -334.3639 110.93380657 -332.82421875 113.3203125 C-331.88509144 121.23581409 -334.58715302 126.03050996 -338.94921875 132.4453125 C-342.41764017 136.37835112 -347.09224846 139.150531 -351.82421875 141.3203125 C-353.14421875 141.3203125 -354.46421875 141.3203125 -355.82421875 141.3203125 C-355.82421875 152.8703125 -355.82421875 164.4203125 -355.82421875 176.3203125 C-334.04421875 176.3203125 -312.26421875 176.3203125 -289.82421875 176.3203125 C-288.83421875 173.3503125 -288.83421875 173.3503125 -287.82421875 170.3203125 C-283.38360727 164.73111109 -278.21680009 160.44859699 -271.82421875 157.3203125 C-271.98921875 156.3921875 -272.15421875 155.4640625 -272.32421875 154.5078125 C-273.75796773 143.8937902 -272.86859404 135.38687544 -266.82421875 126.3203125 C-266.61059561 123.42249409 -266.51291063 120.61762662 -266.50537109 117.71801758 C-266.49532547 116.83975815 -266.48527985 115.96149872 -266.47492981 115.05662537 C-266.44401661 112.15103821 -266.42704008 109.24554353 -266.41015625 106.33984375 C-266.39145115 104.32630106 -266.37187823 102.31276627 -266.35147095 100.29924011 C-266.30007427 94.99745327 -266.26048888 89.69564098 -266.22332764 84.39373779 C-266.18333521 78.98443267 -266.13222117 73.57523404 -266.08203125 68.16601562 C-265.98518267 57.5508485 -265.90183415 46.9356377 -265.82421875 36.3203125 C-275.72421875 36.9803125 -285.62421875 37.6403125 -295.82421875 38.3203125 C-297.14421875 41.6203125 -298.46421875 44.9203125 -299.82421875 48.3203125 C-304.99896301 55.98402771 -311.67799145 61.49369527 -320.82421875 63.3203125 C-331.77009888 64.38165368 -340.503967 63.09547547 -349.13671875 56.0703125 C-355.24357098 50.30889838 -359.2988172 43.47657883 -360.16015625 35.0234375 C-360.29890043 22.75845217 -357.70910559 15.38340627 -349.203125 6.45703125 C-341.841268 -0.15534277 -333.98741735 -1.05223105 -324.43359375 -0.953125 C-313.92960908 -0.15736859 -307.30478842 5.49508362 -300.38671875 12.9453125 C-298.71518501 15.48604378 -298.33093712 17.35871581 -297.82421875 20.3203125 C-297.2322168 20.29001953 -296.64021484 20.25972656 -296.03027344 20.22851562 C-288.96336495 19.87448938 -281.8953038 19.57742314 -274.82421875 19.3203125 C-273.84356445 19.28341309 -272.86291016 19.24651367 -271.85253906 19.20849609 C-269.13469516 19.11715181 -266.41811802 19.05685691 -263.69921875 19.0078125 C-262.87776367 18.97816406 -262.05630859 18.94851562 -261.20996094 18.91796875 C-257.19860605 18.87763674 -255.30868012 19.01357129 -251.83203125 21.21484375 C-248.14513748 25.08106114 -248.68854946 28.63581894 -248.71069336 33.71728516 C-248.71054733 34.58564499 -248.71040131 35.45400482 -248.71025085 36.34867859 C-248.71094914 39.22726922 -248.71873765 42.10579564 -248.7265625 44.984375 C-248.72842698 46.97691818 -248.72985074 48.96946181 -248.73085022 50.96200562 C-248.73467306 56.21290344 -248.74450138 61.46377372 -248.7555542 66.71466064 C-248.76577332 72.07018664 -248.77034892 77.42571707 -248.77539062 82.78125 C-248.78612384 93.29428295 -248.80319748 103.80729544 -248.82421875 114.3203125 C-248.20512131 114.17494049 -247.58602386 114.02956848 -246.94816589 113.87979126 C-246.13664566 113.69339081 -245.32512543 113.50699036 -244.48901367 113.31494141 C-243.68429123 113.1283194 -242.87956879 112.94169739 -242.05046082 112.74942017 C-239.61516466 112.28001737 -237.58575738 112.35011467 -235.13671875 112.6953125 C-232.89444343 112.84614346 -232.89444343 112.84614346 -230.82421875 112.3203125 C-229.01307462 110.53152818 -227.77961685 108.62608153 -226.40234375 106.48828125 C-221.67546119 99.99466784 -213.55506196 96.58421057 -205.82421875 95.3203125 C-196.40437249 94.58788385 -190.11084821 95.53432366 -180.82421875 98.3203125 C-181.15421875 89.0803125 -181.48421875 79.8403125 -181.82421875 70.3203125 C-185.12421875 68.6703125 -188.42421875 67.0203125 -191.82421875 65.3203125 C-197.93943149 60.09279193 -201.29387502 54.91134368 -203.82421875 47.3203125 C-204.59475472 36.19175201 -204.22582421 26.77277022 -197.19921875 17.5703125 C-191.5909259 11.53281357 -184.43534694 7.62772105 -176.25 7.08203125 C-164.78595085 6.77147695 -157.16132543 8.42934452 -148.61328125 16.3984375 C-141.56442875 23.97056726 -139.35260537 32.09708762 -139.58203125 42.33203125 C-140.27472717 50.87900516 -143.86782217 57.21500601 -149.82421875 63.3203125 C-154.44067214 67.09094309 -157.91883063 69.13923488 -163.82421875 70.3203125 C-163.49421875 79.5603125 -163.16421875 88.8003125 -162.82421875 98.3203125 C-159.52421875 97.3303125 -156.22421875 96.3403125 -152.82421875 95.3203125 C-140.08104873 94.02050916 -130.22927329 95.90920275 -119.96484375 103.54296875 C-117.50813903 105.58275096 -115.52745387 107.61062026 -113.82421875 110.3203125 C-113.82421875 110.9803125 -113.82421875 111.6403125 -113.82421875 112.3203125 C-111.99890625 112.2275 -111.99890625 112.2275 -110.13671875 112.1328125 C-106.19875166 112.15368512 -103.89816593 112.68550063 -100.82421875 115.3203125 C-99.79260267 117.30418958 -98.78898257 119.30307906 -97.82421875 121.3203125 C-96.83421875 121.6503125 -95.84421875 121.9803125 -94.82421875 122.3203125 C-94.8342115 120.51080109 -94.8342115 120.51080109 -94.84440613 118.66473389 C-94.90517826 107.30514436 -94.95017269 95.94558775 -94.97965527 84.58587265 C-94.99532201 78.7454934 -95.01657889 72.90524522 -95.05053711 67.06494141 C-95.08309428 61.43043985 -95.10106416 55.79606449 -95.10885048 50.16147614 C-95.11440052 48.01004296 -95.12523816 45.85861681 -95.14140892 43.70723724 C-95.16313454 40.69757573 -95.16618768 37.68843804 -95.16479492 34.67871094 C-95.18097366 33.33975014 -95.18097366 33.33975014 -95.19747925 31.97373962 C-95.16734236 25.96921342 -95.16734236 25.96921342 -93.49043274 22.7979126 C-90.75994305 20.37651183 -88.12428208 20.188482 -84.62817383 20.11499023 C-83.78752884 20.09504501 -82.94688385 20.07509979 -82.08076477 20.05455017 C-80.72594246 20.02948143 -80.72594246 20.02948143 -79.34375 20.00390625 C-77.95176643 19.9727346 -77.95176643 19.9727346 -76.53166199 19.94093323 C-73.56675635 19.87553927 -70.60176203 19.81659988 -67.63671875 19.7578125 C-65.62694395 19.71461763 -63.61717812 19.67100303 -61.60742188 19.62695312 C-56.67977843 19.51986823 -51.75204576 19.41857205 -46.82421875 19.3203125 C-46.50171143 18.64339355 -46.1792041 17.96647461 -45.84692383 17.26904297 C-45.41275146 16.37588379 -44.9785791 15.48272461 -44.53125 14.5625 C-44.10561768 13.67933105 -43.67998535 12.79616211 -43.24145508 11.88623047 C-35.05079137 -2.9430332 -14.75397613 -7.09182718 0 0 Z " fill="#2B1100" transform="translate(427.82421875,10.6796875)"/>
<path d="M0 0 C3.31446203 2.31840608 5.88965778 4.49366433 6.63126469 8.65628135 C6.77896349 11.28504207 6.79458189 13.88712663 6.76965332 16.52000427 C6.77589328 17.52868043 6.78213325 18.5373566 6.7885623 19.5765987 C6.80453289 22.96072653 6.79187164 26.34413815 6.77929688 29.72827148 C6.78471619 32.15274476 6.79183778 34.57721474 6.80053711 37.00167847 C6.81689971 42.90597277 6.81448164 48.81008068 6.80288655 54.71436983 C6.79385213 59.51351087 6.79262825 64.31259491 6.79698181 69.11174202 C6.79759474 69.79484646 6.79820768 70.4779509 6.79883918 71.18175547 C6.80011809 72.56949243 6.80141494 73.95722937 6.80272955 75.3449663 C6.81413596 88.35819333 6.80102117 101.37130765 6.77952808 114.38451619 C6.76166102 125.54782312 6.76475779 136.71096365 6.78320312 147.87426758 C6.80461572 160.8394436 6.8130331 173.8045208 6.80075407 186.76971203 C6.79947988 188.15264291 6.7982224 189.53557381 6.79698181 190.91850471 C6.79636471 191.59892074 6.79574761 192.27933676 6.79511181 192.98037146 C6.79165976 197.77263321 6.79748417 202.56483224 6.80690002 207.35708427 C6.81929888 213.80937743 6.81045392 220.2614303 6.787323 226.71369553 C6.7820294 229.083246 6.78356073 231.4528229 6.79237366 233.8223629 C6.80328661 237.05429196 6.7896157 240.28521012 6.76965332 243.51707458 C6.78303765 244.92733946 6.78303765 244.92733946 6.79669237 246.36609453 C6.72822879 252.07147427 5.99398508 255.20036546 2.26171875 259.58203125 C0.2265625 261.0078125 0.2265625 261.0078125 -1.80078125 261.89453125 C-2.47238281 262.20003906 -3.14398438 262.50554687 -3.8359375 262.8203125 C-9.50934762 265.09200649 -14.59471542 265.67524823 -20.4453125 263.640625 C-25.34994926 261.34987957 -28.51349036 259.71940327 -30.73828125 254.58203125 C-31.2213145 250.97796521 -31.17463387 247.36311482 -31.17773438 243.73242188 C-31.26865871 240.17383153 -31.43262796 238.003622 -33.55078125 235.08203125 C-36.7255304 232.9050604 -38.98400924 233.10421481 -42.73828125 233.58203125 C-45.33289558 235.22528699 -45.66220084 236.28462603 -46.42578125 239.26953125 C-46.52890625 240.03265625 -46.63203125 240.79578125 -46.73828125 241.58203125 C-53.75457713 241.27019588 -57.89239192 239.87313459 -63.3359375 235.21484375 C-65.54432956 232.64351261 -65.72691965 230.23905165 -65.99609375 226.93359375 C-65.52546968 222.64093175 -62.95406726 220.2473674 -59.73828125 217.58203125 C-56.14741743 215.18812203 -53.38788604 214.48597859 -49.17578125 214.20703125 C-45.70709911 213.895965 -44.67132494 213.53784009 -41.61328125 211.51953125 C-38.97127315 207.38038523 -39.70007762 205.29387847 -40.73828125 200.58203125 C-47.08436537 198.46666988 -53.4810116 199.35640654 -59.8046875 201.125 C-66.00025214 202.58940619 -71.11555972 201.55252564 -76.73828125 198.58203125 C-80.91346344 195.83020663 -82.98716929 193.28238442 -84.73828125 188.58203125 C-85.51897305 183.89788043 -84.8520612 181.23329799 -82.23828125 177.39453125 C-76.3999827 170.37773624 -69.20541538 169.01730804 -60.49609375 167.390625 C-57.42732446 166.81149637 -57.42732446 166.81149637 -55.73828125 163.58203125 C-55.15482649 160.62456633 -55.15482649 160.62456633 -55.73828125 157.58203125 C-57.81429012 155.03724619 -59.43017135 153.8389346 -62.6875 153.19921875 C-70.54096047 152.77623165 -77.99646799 155.74201932 -84.55078125 159.89453125 C-87.73828125 161.58203125 -87.73828125 161.58203125 -90.67578125 161.64453125 C-94.78174641 160.22001273 -98.17130044 158.03546221 -101.73828125 155.58203125 C-101.58230469 154.98390625 -101.42632812 154.38578125 -101.265625 153.76953125 C-99.75649011 147.50941617 -100.69907667 144.32777196 -103.73828125 138.70703125 C-106.50738368 133.39299183 -108.20541625 129.51949704 -106.73828125 123.58203125 C-103.30814507 114.30261021 -98.80153273 108.95753223 -90.73828125 103.58203125 C-87.17611364 104.00518291 -83.95052875 105.74788924 -80.67578125 107.14453125 C-74.60502567 109.49626539 -69.22045434 110.78201831 -62.73828125 109.58203125 C-59.91694755 108.18115376 -59.91694755 108.18115376 -58.73828125 105.58203125 C-57.98828125 102.58203125 -57.98828125 102.58203125 -58.73828125 99.58203125 C-61.64480614 95.97393139 -64.47774469 95.34698079 -68.86328125 94.70703125 C-75.98701603 93.59033769 -82.44365075 90.97671561 -87.5390625 85.7265625 C-90.42400419 81.65513775 -91.54553436 77.79713535 -91.2109375 72.8125 C-89.89854301 66.61929958 -86.36487578 62.73730102 -81.30078125 59.14453125 C-77.75589633 57.00941079 -74.97358363 55.40180562 -70.73828125 55.58203125 C-68.6128965 56.44378569 -66.65647906 57.43222287 -64.66796875 58.57421875 C-60.75289141 60.61893525 -57.05359653 60.76693363 -52.67578125 60.83203125 C-51.63292969 60.8578125 -50.59007812 60.88359375 -49.515625 60.91015625 C-46.74103858 60.81500054 -46.74103858 60.81500054 -44.9296875 59.24609375 C-43.06335309 56.63934471 -42.73828125 54.77682772 -42.73828125 51.58203125 C-44.39658635 48.87960813 -45.03284644 48.01204679 -47.73828125 46.58203125 C-49.66302738 46.19873653 -51.60408645 45.89341248 -53.55078125 45.64453125 C-59.54891422 44.86795423 -63.58692908 43.03142922 -67.73828125 38.58203125 C-70.49891447 34.17230689 -70.49675489 29.62787694 -69.73828125 24.58203125 C-66.65021932 19.37092675 -62.4651386 16.35557358 -56.73828125 14.58203125 C-53.28991382 14.03459013 -50.16420853 13.83045671 -46.73828125 14.58203125 C-44.73828125 17.01953125 -44.73828125 17.01953125 -43.73828125 19.58203125 C-40.96727731 20.96753322 -38.80481065 20.76977795 -35.73828125 20.58203125 C-32.49298602 18.92829469 -32.49298602 18.92829469 -32.21875 16.0078125 C-32.12207031 14.98042969 -32.02539062 13.95304687 -31.92578125 12.89453125 C-31.04639594 6.93186987 -29.59507048 3.26500668 -24.73828125 -0.41796875 C-16.31860257 -5.34569649 -8.38598579 -4.25376091 0 0 Z " fill="#FDCA63" transform="translate(241.73828125,125.41796875)"/>
<path d="M0 0 C3.6963423 2.03235315 5.13863223 3.53130695 7.2734375 7.25 C7.665001 9.82779301 7.835455 12.36656889 7.984375 14.96875 C8.13157373 17.44359749 8.13157373 17.44359749 9.9609375 19.875 C13.02684974 21.69797485 14.76256905 21.83514474 18.2734375 21.25 C20.57619306 19.3829009 21.95167621 17.89352259 23.2734375 15.25 C25.26953125 14.828125 25.26953125 14.828125 27.7109375 14.5 C30.14622877 14.09677214 30.14622877 14.09677214 32.2734375 13.25 C33.96509051 10.26716843 33.96509051 10.26716843 34.2734375 7.25 C35.9234375 7.58 37.5734375 7.91 39.2734375 8.25 C39.2734375 8.91 39.2734375 9.57 39.2734375 10.25 C40.1190625 10.415 40.9646875 10.58 41.8359375 10.75 C46.51633902 12.79235703 49.44498423 16.0240565 52.2734375 20.25 C52.2734375 21.24 52.2734375 22.23 52.2734375 23.25 C51.4896875 23.95125 50.7059375 24.6525 49.8984375 25.375 C47.17906912 28.35335584 46.97314658 28.90674148 46.4609375 32.625 C45.5907912 37.63670802 43.21828446 39.82382396 39.28125 42.87890625 C34.75066411 45.97274992 30.7283698 46.554963 25.359375 47.00390625 C23.08212432 47.20105034 23.08212432 47.20105034 20.2734375 48.25 C19.01687577 54.17737684 19.01687577 54.17737684 20.5859375 59.8125 C25.76735648 62.58395666 30.91149229 61.89706853 36.453125 60.37890625 C38.51560945 59.69057097 40.56889138 58.97370497 42.609375 58.22265625 C48.57233467 56.04556393 48.57233467 56.04556393 51.45703125 56.88671875 C58.29658486 60.07534946 63.36889863 62.96143345 66.609375 70.03515625 C68.17461266 75.25568421 67.01690589 79.70358574 64.7109375 84.5 C58.16877342 91.88090306 48.97276292 95.21916502 39.41015625 96.625 C36.90249632 97.10997897 36.90249632 97.10997897 35.2734375 100.25 C34.72521736 104.86632971 34.72521736 104.86632971 36.5078125 108.9453125 C39.96121424 111.49716246 44.18217553 110.6840094 48.2734375 110.25 C53.04765782 109.22245917 57.31244339 107.74829324 61.6484375 105.5 C64.2734375 104.25 64.2734375 104.25 66.19140625 104.4765625 C72.81424843 106.93683033 77.6157452 113.48636365 81.2734375 119.25 C83.22142005 125.09394765 83.30623744 131.92992604 81.47265625 137.82421875 C77.29610998 146.04813976 69.93489797 152.28343739 61.3984375 155.6328125 C56.8984111 156.93980546 53.33569189 156.56474204 48.8984375 155.25 C43.72171851 153.82193959 38.79230905 153.26702574 33.7109375 155.25 C31.76734386 157.95413028 31.83365919 160.04705031 31.83984375 163.3125 C32.4027665 165.82790256 33.20909061 166.72742741 35.2734375 168.25 C37.21376161 168.64221705 37.21376161 168.64221705 39.3359375 168.625 C46.52492008 169.23383892 52.82463614 172.36650686 57.8984375 177.5 C60.52811514 180.92903988 61.04273205 183.83935586 60.73046875 188.109375 C59.53779351 193.69558042 55.78630528 197.09099255 51.2734375 200.25 C46.72414948 202.93168557 42.42544798 202.6672968 37.2734375 202.25 C36.1390625 201.92 35.0046875 201.59 33.8359375 201.25 C29.04675388 199.90566776 24.21361851 199.51841269 19.2734375 200.25 C17.40642025 201.45517119 17.40642025 201.45517119 16.2734375 203.25 C15.78454788 207.09127559 15.53183207 209.28608662 17.94140625 212.41796875 C20.76477002 214.63598819 22.47703725 214.82181034 26.0234375 215.125 C32.08382714 215.94096433 35.97090524 217.91210447 40.2734375 222.25 C41.91007919 225.52328338 41.92872175 228.72546143 41.2734375 232.25 C38.51669456 237.39727648 34.63848964 240.01714115 29.203125 241.83984375 C27.2734375 242.25 27.2734375 242.25 23.2734375 242.25 C22.5928125 240.5484375 22.5928125 240.5484375 21.8984375 238.8125 C20.70247944 235.20278308 20.70247944 235.20278308 18.2734375 234.25 C13.74665175 233.80247306 13.74665175 233.80247306 9.578125 235.24609375 C7.19412974 238.90773916 7.83765622 243.57050665 7.83398438 247.82617188 C7.7002334 253.07935665 6.75203629 256.07693275 3.2734375 260.25 C-2.13685453 265.14939278 -9.24003761 264.72433794 -16.140625 264.78125 C-21.30461257 264.0162148 -24.13801255 261.74728676 -27.86871243 258.23091793 C-30.54845449 253.93127541 -30.28453854 250.2476773 -30.2412262 245.27406311 C-30.24817172 244.2613034 -30.25511725 243.24854368 -30.26227325 242.20509428 C-30.28058819 238.80716064 -30.27026607 235.40992163 -30.26000977 232.01196289 C-30.26706593 229.57763648 -30.27580967 227.14331445 -30.28611755 224.70899963 C-30.30631346 218.78065085 -30.30763045 212.85247896 -30.29949201 206.92411787 C-30.29319163 202.1054288 -30.29432937 197.2867957 -30.30076408 192.46810722 C-30.30166574 191.78222742 -30.30256739 191.09634762 -30.30349637 190.38968359 C-30.30534758 188.99630963 -30.30721014 187.60293569 -30.30908393 186.20956176 C-30.32566283 173.14340518 -30.3169426 160.07735659 -30.30009835 147.0112065 C-30.28540254 135.05887575 -30.30002782 123.10679641 -30.32886852 111.15449805 C-30.35826575 98.88008864 -30.36923379 86.60579525 -30.35968632 74.33135217 C-30.35866377 72.94280432 -30.35766916 71.55425644 -30.3567028 70.16570854 C-30.35622641 69.48252841 -30.35575002 68.79934827 -30.3552592 68.09546571 C-30.35309542 63.28364668 -30.3628972 58.47193755 -30.37747383 53.6601429 C-30.39682605 47.18155139 -30.38991166 40.70331337 -30.36527443 34.22473717 C-30.36025624 31.84550842 -30.36378225 29.46624422 -30.37642288 27.08704376 C-30.39230222 23.84179449 -30.3774491 20.59809601 -30.35475159 17.35292053 C-30.37250518 15.93681924 -30.37250518 15.93681924 -30.39061743 14.49210984 C-30.32841204 10.12169639 -30.13170237 7.1790298 -27.32328701 3.70987606 C-19.19253036 -3.99238637 -9.91735262 -4.39415008 0 0 Z " fill="#FDCB63" transform="translate(293.7265625,124.75)"/>
<path d="M0 0 C6.64787456 2.3751154 11.47225601 9.00812879 15.12109375 14.7578125 C17.0690763 20.60176015 17.15389369 27.43773854 15.3203125 33.33203125 C11.91497464 40.03738725 5.36184034 47.21451763 -1.87890625 49.7578125 C-5.06227355 49.61156285 -6.39737697 49.26434217 -8.609375 46.9375 C-14.45029869 37.69850542 -15.86097763 29.68491049 -14.87890625 18.7578125 C-13.12685877 11.8020791 -8.63679675 6.00789857 -3.87890625 0.7578125 C-1.87890625 -0.2421875 -1.87890625 -0.2421875 0 0 Z " fill="#FDE4BF" transform="translate(359.87890625,229.2421875)"/>
<path d="M0 0 C2.42587194 3.03233993 2.75471698 4.79469624 2.46484375 8.60546875 C2 10.5 2 10.5 0.1875 12.8125 C-2.72416988 14.35397229 -5.02245231 15.09046268 -8.1875 15.875 C-17.83566143 18.30327212 -25.318481 23.30466313 -31 31.5 C-33.71787682 36.15075379 -35.84093089 40.92367965 -37.625 46 C-39 49.5 -39 49.5 -42 51.5 C-45.83693587 51.91857482 -48.11203064 52.04644269 -51.4375 50 C-53.6814482 46.40968288 -53.7517427 43.5422656 -53 39.5 C-48.29683887 24.57890915 -39.6281559 11.81830191 -25.59790039 4.48535156 C-8.30331648 -4.15165824 -8.30331648 -4.15165824 0 0 Z " fill="#2F1401" transform="translate(237,218.5)"/>
<path d="M0 0 C2.76713371 2.50632341 3.00356069 4.03389635 3.3984375 7.79296875 C3.4110982 9.25777862 3.402361 10.72289097 3.375 12.1875 C3.36629883 12.95054443 3.35759766 13.71358887 3.34863281 14.49975586 C3.20216137 20.12870141 2.43434454 24.878392 0 30 C-0.26683594 30.64710938 -0.53367187 31.29421875 -0.80859375 31.9609375 C-5.75013336 43.07391103 -15.11325576 52.55662788 -26 58 C-30.05263598 58.54035146 -31.53730231 58.34199395 -34.875 55.875 C-37 53 -37 53 -37.625 50 C-36.629863 45.22334242 -33.67942123 43.25339158 -29.875 40.4140625 C-22.92146678 35.22240425 -15.99059084 28.8351609 -14 20 C-13.72499849 16.16247899 -13.56243618 12.37080522 -13.50390625 8.5234375 C-12.92622078 4.48411736 -11.84518805 2.86114238 -9 0 C-5.8168485 -1.59157575 -3.38676935 -0.77242108 0 0 Z " fill="#2F1502" transform="translate(312,230)"/>
<path d="M0 0 C1.9921875 1.16015625 1.9921875 1.16015625 3.4921875 3.47265625 C3.7396875 4.80296875 3.7396875 4.80296875 3.9921875 6.16015625 C4.1984375 7.23265625 4.4046875 8.30515625 4.6171875 9.41015625 C5.50519084 18.29018965 4.84994839 24.92369597 0.9921875 33.16015625 C-1.0078125 35.16015625 -1.0078125 35.16015625 -4.2578125 35.72265625 C-11.53644696 35.52232686 -19.8220248 31.21603804 -25.01953125 26.23046875 C-27.81587546 22.24026984 -28.80620507 18.24326094 -28.48046875 13.390625 C-27.14585434 7.09256858 -23.58520984 3.28710468 -18.3828125 -0.27734375 C-11.26109584 -4.73753149 -7.32611029 -3.35079471 0 0 Z " fill="#F6B239" transform="translate(179.0078125,184.83984375)"/>
<path d="M0 0 C0.33 0 0.66 0 1 0 C1.09124302 31.36418755 1.16203486 62.72834003 1.20426132 94.09262878 C1.20926417 97.79515118 1.21444145 101.49767331 1.21972656 105.20019531 C1.2207758 105.9373033 1.22182505 106.67441128 1.22290608 107.43385588 C1.24031311 119.37028449 1.27185241 131.30663608 1.30861118 143.243019 C1.34601237 155.49011756 1.3682341 167.73717577 1.37635398 179.9843291 C1.38184348 187.54200601 1.39918377 195.0994652 1.43166587 202.65707509 C1.45530181 208.45148287 1.45782191 214.24575101 1.45243073 220.04019737 C1.45353276 222.41782536 1.46151037 224.79546145 1.4768219 227.17304039 C1.49668592 230.41613113 1.49195156 233.65828588 1.48101807 236.90139771 C1.49266943 237.84498489 1.5043208 238.78857207 1.51632524 239.7607528 C1.46405575 245.48600532 0.73460735 248.59797163 -3 253 C-5.46722878 254.96691599 -7.93301296 256.23019847 -11 257 C-13.8125 255.9375 -13.8125 255.9375 -16 254 C-16.556875 253.566875 -17.11375 253.13375 -17.6875 252.6875 C-22.17888087 246.91286745 -21.69690023 238.90017264 -21 232 C-19.4498768 227.15691239 -16.38593743 223.53409718 -12 221 C-4.36626506 219.31686747 -4.36626506 219.31686747 -1 221 C-0.67 148.07 -0.34 75.14 0 0 Z " fill="#ECAD3E" transform="translate(247,132)"/>
<path d="M0 0 C2.71739438 1.93236934 3.89369055 3.3708513 5.75 6.0625 C8.70500072 10.34646929 10.84127931 10.92777593 15.8125 12 C16.91148702 15.29696105 16.68374444 16.40494903 15.875 19.6875 C15.68035156 20.49574219 15.48570312 21.30398438 15.28515625 22.13671875 C15.05119141 23.05904297 15.05119141 23.05904297 14.8125 24 C14.24402344 23.94199219 13.67554688 23.88398438 13.08984375 23.82421875 C7.54197548 23.50005282 4.57836549 24.19850535 0.3203125 27.80859375 C-2.73689156 30.22426017 -6.20044449 30.39971669 -9.9921875 30.34375 C-15.22359718 29.52459688 -19.04680814 26.49715807 -22.1875 22.375 C-23.81011254 16.89868268 -24.80938605 11.0383332 -22.015625 5.8046875 C-16.20242526 -1.35693485 -8.65670232 -2.71582818 0 0 Z " fill="#0085FC" transform="translate(420.1875,458)"/>
<path d="M0 0 C4.86108919 2.29796944 7.70203056 5.13891081 10 10 C10.87817307 15.43318292 10.95382334 20.31783768 7.8125 25 C4.8225979 28.46330326 2.3272214 30.7650037 -2.3984375 31.2421875 C-6.97147029 31.36288338 -9.92941002 31.11437598 -14 29 C-17.85345749 28.79356478 -21.30833366 28.81866677 -25 30 C-27.50298434 27.06171403 -28.46930939 24.82097239 -29 21 C-27.6078125 20.566875 -27.6078125 20.566875 -26.1875 20.125 C-22.02770184 17.35180123 -21.87386309 15.11755198 -20.703125 10.44140625 C-19.49950029 6.26215379 -17.12116156 3.98526319 -13.9375 1.1875 C-9.32284352 -0.67799943 -4.90334228 -0.64176097 0 0 Z " fill="#0085FB" transform="translate(69,367)"/>
<path d="M0 0 C0.12375 1.093125 0.2475 2.18625 0.375 3.3125 C0.82266846 5.30296345 0.82266846 5.30296345 2 7 C4.47071051 8.12264843 6.88660349 8.70522504 9.5234375 9.3359375 C14.0686738 10.55469171 16.28374871 12.9132739 18.8125 16.75 C20.72310412 21.97902179 20.72310412 26.02097821 18.8125 31.25 C16.14587935 35.29590719 12.60422881 38.37497807 8 40 C2.10746556 40.67990782 -2.26042476 39.45444096 -7 36 C-11.08105687 31.00070534 -11.55729403 26.89215267 -11.33984375 20.5078125 C-10.92347542 17.43530137 -9.70517102 15.55775654 -8 13 C-7.74073426 9.24064683 -7.80788562 6.57634313 -9 3 C-2.25 0 -2.25 0 0 0 Z " fill="#0085FC" transform="translate(435,229)"/>
<path d="M0 0 C2.0232199 1.11277094 3.5371358 2.36787304 5.265625 3.88671875 C8.5245993 5.97862793 12.2777941 5.37981693 16 5 C17.74565111 8.21639654 18.204437 10.32013404 18 14 C16.948125 14.309375 15.89625 14.61875 14.8125 14.9375 C10.43408653 16.76991449 9.21765267 19.73279146 7.1875 23.83984375 C5.01806666 27.78621426 2.17652932 29.60782356 -2 31 C-8.15848362 31.51320697 -12.12473104 30.92490007 -17 27 C-20.59801769 23.30972545 -21.35955204 20.13251312 -21.6875 15.125 C-21.52122574 9.3198595 -19.78251213 6.45669415 -15.7265625 2.42578125 C-11.25056066 -1.27046461 -5.52277337 -0.66899574 0 0 Z " fill="#0085FB" transform="translate(70,106)"/>
<path d="M0 0 C3.81710835 2.51766721 6.77349892 4.84664865 8.9375 8.9375 C9.93583991 14.08046318 9.71571449 19.10306425 7.4375 23.875 C3.49095673 28.7095155 -0.48798153 30.57616407 -6.625 31.4375 C-12.19264127 30.62766127 -15.68288895 28.46233326 -19.4375 24.3125 C-22.48940033 19.85203029 -22.69081056 16.26068667 -22.0625 10.9375 C-20.33025684 6.09851639 -17.31487963 2.77241975 -13.0625 -0.0625 C-8.44150885 -1.60283038 -4.61480704 -1.6010555 0 0 Z " fill="#0085FA" transform="translate(81.0625,238.0625)"/>
<path d="M0 0 C4.52966583 2.47551505 7.16586374 5.37259122 8.8125 10.3125 C9.39283765 16.23194399 8.34856377 20.57793843 4.8125 25.3125 C1.25935383 28.50339483 -1.97230218 30.11720035 -6.6875 30.875 C-12.77683388 29.89635706 -16.75344769 28.06921408 -20.6875 23.25 C-22.98392104 18.49312784 -22.94134475 13.45729614 -22.1875 8.3125 C-18.01387059 -0.86948469 -9.18882811 -4.16900535 0 0 Z " fill="#0085FB" transform="translate(107.1875,27.6875)"/>
<path d="M0 0 C4.31402932 1.68809843 7.92932352 4.79924238 10 9 C10.89732296 14.12866486 10.78252397 19.18821246 8.5 23.9375 C4.53955592 28.789044 0.55861273 30.69120191 -5.625 31.4375 C-10.90985436 30.75242629 -14.340734 28.99899694 -17.8125 25 C-21.07806453 20.52151151 -21.70990754 16.43929158 -21 11 C-19.59922508 7.02980367 -17.47232822 4.44928782 -14.4375 1.5625 C-9.56912923 -0.6503958 -5.26439658 -0.65301091 0 0 Z " fill="#0085FC" transform="translate(261,447)"/>
<path d="M0 0 C4.28590933 2.79515826 7.22425239 5.92275717 8.875 10.875 C9.4568058 16.80941915 8.35571353 21.09937816 4.875 25.875 C0.06528914 29.80129458 -4.2065193 30.67359453 -10.39453125 30.46875 C-15.09104605 29.4474764 -18.17109596 26.56343098 -21.125 22.875 C-23.05097927 17.09706218 -23.06218691 11.02272001 -20.625 5.4375 C-14.78528923 -0.54820354 -8.13121584 -2.9272377 0 0 Z " fill="#0085FC" transform="translate(106.125,457.125)"/>
<path d="M0 0 C4.76506238 2.15052441 7.6885682 4.39535161 9.8359375 9.31640625 C10.59875773 14.64820181 10.54034596 18.88150013 8.1484375 23.75390625 C7.3853125 24.59953125 6.6221875 25.44515625 5.8359375 26.31640625 C5.1759375 27.10015625 4.5159375 27.88390625 3.8359375 28.69140625 C-1.00091139 31.31136606 -5.79278033 31.01605766 -11.1640625 30.31640625 C-16.13997807 28.183871 -18.33735265 25.21403851 -20.47265625 20.3984375 C-21.94992275 15.94994572 -21.60484516 12.54080252 -20.0390625 8.19140625 C-15.27676351 0.88921447 -8.64176829 -2.72980045 0 0 Z " fill="#0085FB" transform="translate(261.1640625,34.68359375)"/>
<path d="M0 0 C3.88446678 2.58964452 6.69907021 5.64814041 8.8125 9.875 C9.6860943 15.89032072 8.82643472 20.25071164 5.2890625 25.2109375 C2.49432563 28.36056159 -0.20363862 29.62523328 -4.359375 30.1484375 C-9.36451051 30.36678234 -12.94198048 29.73825735 -17.1875 26.875 C-21.77086071 21.92001545 -22.55645723 17.94111145 -22.4609375 11.37890625 C-21.9793305 6.96876217 -20.03824919 4.37434112 -16.64453125 1.625 C-11.18183035 -1.9751324 -6.20744891 -2.19086432 0 0 Z " fill="#0085FC" transform="translate(419.1875,25.125)"/>
<path d="M0 0 C4.02443253 2.24439506 6.20282311 4.71814622 8.25 8.8125 C8.77940021 14.12385952 8.91363629 18.48522741 6.5 23.3125 C3.05032043 27.1454773 0.26777112 29.44319235 -4.984375 30.0859375 C-10.42945121 30.30576977 -14.08884299 29.92576236 -18.34375 26.36328125 C-21.63091856 22.73826481 -22.62334982 19.01567668 -23.125 14.25 C-22.53905621 8.87884858 -20.76325526 5.47784495 -16.6875 2 C-11.16876832 -2.10969381 -6.4147663 -2.03134266 0 0 Z " fill="#0085FB" transform="translate(454.75,109.1875)"/>
<path d="M0 0 C4.62685186 2.2985006 7.30777877 5.54592502 8.94140625 10.33984375 C9.84305196 15.63701229 8.92247653 19.86823833 5.94140625 24.33984375 C2.03655445 28.28737153 -1.19604433 30.1846313 -6.80859375 30.65234375 C-11.55565443 30.59114776 -14.20174255 29.06232695 -18.05859375 26.33984375 C-22.07249886 21.92454813 -22.41139075 17.60334796 -22.3359375 11.84375 C-21.77946783 6.81984773 -19.03767999 4.22568368 -15.43359375 0.96484375 C-10.33063302 -1.49213734 -5.42598513 -1.7400218 0 0 Z " fill="#0085FC" transform="translate(455.05859375,367.66015625)"/>
<path d="M0 0 C3.147975 2.0748017 4.69269216 3.7648965 5.61328125 7.46484375 C5.91847464 9.3570428 6.20831016 11.25176978 6.484375 13.1484375 C7.96982766 21.36344087 11.79027353 26.70048466 18.3125 31.8125 C20.49367637 34.63995085 20.63919071 36.58254408 20.44921875 40.09375 C20 42 20 42 17.875 44.5 C14.48648966 46.26791844 12.78039635 46.41899785 9 46 C5.21277379 43.48847104 2.15097593 40.26200025 -1 37 C-1.52078125 36.46246094 -2.0415625 35.92492187 -2.578125 35.37109375 C-8.43397827 28.27365133 -12.02952256 16.1170427 -11.484375 7.03125 C-10.07018896 1.10079241 -5.68999797 -1.18541624 0 0 Z " fill="#2F1402" transform="translate(219,291)"/>
<path d="M0 0 C3.14163783 4.71245675 2.36868336 9.64465117 2.375 15.1875 C2.39949219 16.29931641 2.42398437 17.41113281 2.44921875 18.55664062 C2.47399706 25.53173393 1.75144382 30.07703397 -2 36 C-5.31333277 39.21292875 -8.31466452 39.18114615 -12.75 39.25 C-17.83152174 39.16847826 -17.83152174 39.16847826 -19 38 C-19.29076238 33.95913897 -19.31409419 29.91440416 -19.35009766 25.86401367 C-19.36659268 24.50511471 -19.39379787 23.14630019 -19.43212891 21.7878418 C-19.78943285 9.05694701 -19.78943285 9.05694701 -16.65234375 5.19140625 C-11.13287611 0.63113917 -7.03287379 -0.70328738 0 0 Z " fill="#FEE5C0" transform="translate(283,123)"/>
<path d="M0 0 C1.31571603 0.2547514 2.62760376 0.52934141 3.9375 0.8125 C5.03384766 1.03873047 5.03384766 1.03873047 6.15234375 1.26953125 C6.76207031 1.51058594 7.37179687 1.75164062 8 2 C9.09898702 5.29696105 8.87124444 6.40494903 8.0625 9.6875 C7.86785156 10.49574219 7.67320312 11.30398438 7.47265625 12.13671875 C7.31667969 12.75160156 7.16070312 13.36648438 7 14 C6.43152344 13.94199219 5.86304688 13.88398438 5.27734375 13.82421875 C-0.27052452 13.50005282 -3.23413451 14.19850535 -7.4921875 17.80859375 C-10.23930387 19.9792427 -12.83225636 20.11750399 -16.1875 20.0625 C-18.0746875 20.0315625 -18.0746875 20.0315625 -20 20 C-20 19.67 -20 19.34 -20 19 C-18.35 19 -16.7 19 -15 19 C-14.938125 17.7315625 -14.938125 17.7315625 -14.875 16.4375 C-13.69807075 11.81384936 -11.2464402 9.3772791 -8 6 C-7.29875 5.195625 -6.5975 4.39125 -5.875 3.5625 C-4 2 -4 2 0 2 C0 1.34 0 0.68 0 0 Z " fill="#005EE7" transform="translate(428,468)"/>
<path d="M0 0 C2.875 0.375 2.875 0.375 4.875 2.375 C4.318125 2.87 3.76125 3.365 3.1875 3.875 C1.18623578 6.03852889 -0.13395123 7.93087622 -1.625 10.4375 C-4.19610037 14.6806043 -6.35945517 16.78648506 -11.125 18.375 C-12.51939664 18.44165376 -13.91669875 18.46038199 -15.3125 18.4375 C-17.1996875 18.4065625 -17.1996875 18.4065625 -19.125 18.375 C-19.125 18.045 -19.125 17.715 -19.125 17.375 C-17.475 17.375 -15.825 17.375 -14.125 17.375 C-14.063125 16.1065625 -14.063125 16.1065625 -14 14.8125 C-12.82133432 10.18202767 -10.36576736 7.7634479 -7.125 4.375 C-6.465 3.570625 -5.805 2.76625 -5.125 1.9375 C-3.125 0.375 -3.125 0.375 0 0 Z " fill="#015CE4" transform="translate(79.125,118.625)"/>
<path d="M0 0 C0.33 0 0.66 0 1 0 C1.28951652 5.59731932 1.18452849 9.1683016 -2 14 C-7.31643393 18.90747747 -10.75123545 20.27879864 -18 20 C-16.68 19.67 -15.36 19.34 -14 19 C-13.938125 17.7315625 -13.938125 17.7315625 -13.875 16.4375 C-12.69893593 11.8172483 -10.24924573 9.37170474 -7 6 C-6.278125 5.195625 -5.55625 4.39125 -4.8125 3.5625 C-3 2 -3 2 0 2 C0 1.34 0 0.68 0 0 Z " fill="#015BE0" transform="translate(454,249)"/>
<path d="M0 0 C0.33 0 0.66 0 1 0 C1.49022681 5.88272177 0.5836714 10.20169488 -3 15 C-6.59807189 18.23124026 -10.09362303 20.28264375 -15 20.3125 C-15.99 20.209375 -16.98 20.10625 -18 20 C-16.68 19.67 -15.36 19.34 -14 19 C-14.06832031 18.25878906 -14.13664062 17.51757812 -14.20703125 16.75390625 C-13.95067963 13.34394597 -13.0251359 12.37193242 -10.6875 9.9375 C-8.78024975 7.91829376 -7.0506267 6.07680832 -5.51953125 3.75390625 C-5.01808594 3.17511719 -4.51664063 2.59632812 -4 2 C-2.68 2 -1.36 2 0 2 C0 1.34 0 0.68 0 0 Z " fill="#025ADE" transform="translate(115,38)"/>
<path d="M0 0 C1.32 0 2.64 0 4 0 C4.39157142 4.79674995 4.02906207 8.28854749 1.39453125 12.421875 C-1.61581245 15.82853846 -5.57596431 17.72153262 -10.07421875 18.23828125 C-12 18.25 -12 18.25 -15 18 C-13.68 17.67 -12.36 17.34 -11 17 C-10.95875 16.319375 -10.9175 15.63875 -10.875 14.9375 C-9.80313714 11.33910327 -8.05629059 9.44758306 -5.55078125 6.71484375 C-3.82056037 4.86403977 -3.82056037 4.86403977 -1.875 2.0625 C-0.946875 1.0415625 -0.946875 1.0415625 0 0 Z " fill="#015BE2" transform="translate(86,251)"/>
<path d="M0 0 C0.33 0 0.66 0 1 0 C1.63536748 6.09952779 1.06372288 10.26242526 -2.50390625 15.3359375 C-4.71309811 17.79315873 -6.89416412 18.94269417 -10 20 C-11.32 20 -12.64 20 -14 20 C-14.26267971 17.03326444 -14.30575658 15.46524344 -12.64453125 12.9375 C-12.03996094 12.298125 -11.43539063 11.65875 -10.8125 11 C-9.85730469 9.9790625 -9.85730469 9.9790625 -8.8828125 8.9375 C-7.95082031 7.9784375 -7.95082031 7.9784375 -7 7 C-6.50242187 6.46375 -6.00484375 5.9275 -5.4921875 5.375 C-4.37790894 4.2006705 -3.19475593 3.09234828 -2 2 C-1.34 2 -0.68 2 0 2 C0 1.34 0 0.68 0 0 Z " fill="#015BE4" transform="translate(427,35)"/>
<path d="M0 0 C1.32 0 2.64 0 4 0 C4.39157142 4.79674995 4.02906207 8.28854749 1.39453125 12.421875 C-1.61581245 15.82853846 -5.57596431 17.72153262 -10.07421875 18.23828125 C-12 18.25 -12 18.25 -15 18 C-13.68 17.67 -12.36 17.34 -11 17 C-10.95875 16.319375 -10.9175 15.63875 -10.875 14.9375 C-9.80313714 11.33910327 -8.05629059 9.44758306 -5.55078125 6.71484375 C-3.82056037 4.86403977 -3.82056037 4.86403977 -1.875 2.0625 C-0.946875 1.0415625 -0.946875 1.0415625 0 0 Z " fill="#015CE4" transform="translate(267,460)"/>
<path d="M0 0 C1.32 0 2.64 0 4 0 C4.50823118 5.79383544 4.12403858 8.96051719 0.42578125 13.5234375 C-2.42239612 16.47305681 -4.70359237 17.91357282 -8.8125 18.1875 C-9.534375 18.125625 -10.25625 18.06375 -11 18 C-10.74571759 12.78721062 -8.9642343 10.3456872 -5.55078125 6.6796875 C-3.81342381 4.86473944 -3.81342381 4.86473944 -1.875 2.0625 C-0.946875 1.0415625 -0.946875 1.0415625 0 0 Z " fill="#015BE4" transform="translate(75,380)"/>
<path d="M0 0 C0.48856501 5.8627801 -0.43514679 10.20875414 -4 15 C-7.50471379 17.90297639 -10.37945272 19 -15 19 C-15.26267971 16.03326444 -15.30575658 14.46524344 -13.64453125 11.9375 C-13.03996094 11.298125 -12.43539062 10.65875 -11.8125 10 C-11.17570312 9.31808594 -10.53890625 8.63617188 -9.8828125 7.93359375 C-8.95082031 6.97646484 -8.95082031 6.97646484 -8 6 C-7.25363281 5.21302734 -7.25363281 5.21302734 -6.4921875 4.41015625 C-2.22264493 0 -2.22264493 0 0 0 Z " fill="#015BE4" transform="translate(115,468)"/>
<path d="M0 0 C0.33 0 0.66 0 1 0 C1.28944223 5.59588314 1.20887163 9.18669255 -2 14 C-5.84460059 17.84460059 -8.54219073 19.61015648 -14 20 C-14.48932306 17.30872319 -14.41389208 15.59923769 -12.83984375 13.3203125 C-11.26529462 11.50817156 -9.63459998 9.75796602 -8 8 C-7.0987527 6.85842009 -6.20244304 5.71291417 -5.3125 4.5625 C-4.549375 3.716875 -3.78625 2.87125 -3 2 C-2.01 2 -1.02 2 0 2 C0 1.34 0 0.68 0 0 Z " fill="#015CE5" transform="translate(463,378)"/>
<path d="M0 0 C0.42034404 6.09498863 0.07814737 9.12887953 -4 14 C-7.28939137 17.28939137 -10.45348023 17.56283464 -15 18 C-14.45276317 14.62537285 -13.9451 12.91765 -12 10 C-11.34 10 -10.68 10 -10 10 C-9.71125 9.4225 -9.4225 8.845 -9.125 8.25 C-8.568125 7.13625 -8.568125 7.13625 -8 6 C-7.5359375 4.948125 -7.5359375 4.948125 -7.0625 3.875 C-5.26338879 0.70009787 -3.5658217 0 0 0 Z " fill="#005DE9" transform="translate(463,121)"/>
<path d="M0 0 C1.32 0 2.64 0 4 0 C4.45858928 5.73236598 3.65645061 8.55296547 0 13 C-2.91202747 15.91202747 -4.16971361 16.93733688 -8.3125 17.25 C-9.199375 17.1675 -10.08625 17.085 -11 17 C-10.45276317 13.62537285 -9.9451 11.91765 -8 9 C-7.34 9 -6.68 9 -6 9 C-5.7525 8.443125 -5.505 7.88625 -5.25 7.3125 C-3.74989321 4.53730243 -2.16884385 2.2964229 0 0 Z " fill="#005DE8" transform="translate(267,48)"/>
<path d="M0 0 C-0.48496862 4.36471762 -1.30402648 8.55103467 -2.375 12.8125 C-2.60960937 13.74707031 -2.84421875 14.68164062 -3.0859375 15.64453125 C-4 18 -4 18 -7 20 C-10.1875 19.625 -10.1875 19.625 -13 19 C-13 18.34 -13 17.68 -13 17 C-12.3709375 16.76925781 -11.741875 16.53851563 -11.09375 16.30078125 C-8.81828276 15.17018647 -8.81828276 15.17018647 -8.09375 12.79296875 C-7.8978125 11.93316406 -7.701875 11.07335937 -7.5 10.1875 C-4.80200796 0 -4.80200796 0 0 0 Z " fill="#24A0F6" transform="translate(55,370)"/>
<path d="M0 0 C0.99 0.33 1.98 0.66 3 1 C3.22395319 4.91918089 2.53520886 7.41784599 1 11 C0.31320058 13.32748694 -0.35761043 15.65986656 -1 18 C-1.99 18 -2.98 18 -4 18 C-4.474377 10.71304215 -4.28670939 6.02818509 0 0 Z " fill="#23A1F8" transform="translate(428,240)"/>
<path d="M0 0 C0.66 0.33 1.32 0.66 2 1 C1.21450457 6.81266619 -0.40682459 12.36877624 -2 18 C-2.99 18 -3.98 18 -5 18 C-5.44571269 11.04192963 -5.68605882 6.39606774 -1 1 C-0.67 0.67 -0.34 0.34 0 0 Z " fill="#23A0F6" transform="translate(89,459)"/>
<path d="M0 0 C0.66 0.33 1.32 0.66 2 1 C1.731875 1.928125 1.46375 2.85625 1.1875 3.8125 C-0.25661199 8.86169732 -1.62520364 13.93158407 -3 19 C-3.66 19 -4.32 19 -5 19 C-6.60958375 15.78083251 -6.4717699 12.49109728 -6 9 C-4.57545124 5.52302081 -2.66734004 2.66734004 0 0 Z " fill="#249CEF" transform="translate(246,449)"/>
<path d="M0 0 C-0.50572224 3.96149091 -1.11365209 7.89155827 -1.875 11.8125 C-2.01679688 12.56144531 -2.15859375 13.31039063 -2.3046875 14.08203125 C-3 16 -3 16 -6 18 C-7.71039781 16.28960219 -7.29301542 14.14906044 -7.375 11.8125 C-7.35444618 7.86616714 -7.15291631 5.40547995 -4.625 2.3125 C-2 0 -2 0 0 0 Z " fill="#23A1F8" transform="translate(404,460)"/>
<path d="M0 0 C0.66 0 1.32 0 2 0 C1.41632611 6.30367803 -0.04071619 11.98660063 -2 18 C-2.99 17.67 -3.98 17.34 -5 17 C-5.54335626 10.34388587 -4.80091227 6.52859966 -1 1 C-0.67 0.67 -0.34 0.34 0 0 Z " fill="#259DF0" transform="translate(64,241)"/>
<path d="M0 0 C0.66 0.33 1.32 0.66 2 1 C1.45766142 5.01330548 0.57235376 8.89549148 -0.4375 12.8125 C-0.68371094 13.76769531 -0.92992187 14.72289062 -1.18359375 15.70703125 C-2 18 -2 18 -4 19 C-5.85143856 15.29712287 -5.4703092 11.04094612 -5 7 C-3.78858572 4.2412793 -2.14122175 2.14122175 0 0 Z " fill="#249FF4" transform="translate(402,27)"/>
<path d="M0 0 C0.66 0.33 1.32 0.66 2 1 C1.69169075 3.00401011 1.35036606 5.00291344 1 7 C0.8659375 7.76957031 0.731875 8.53914063 0.59375 9.33203125 C0.4390625 10.12996094 0.284375 10.92789062 0.125 11.75 C-0.01679688 12.50796875 -0.15859375 13.2659375 -0.3046875 14.046875 C-1 16 -1 16 -4 18 C-5.63109367 16.36890633 -5.24872283 14.55812778 -5.3125 12.3125 C-5.28093531 6.80446129 -3.91156666 3.91156666 0 0 Z " fill="#24A2F9" transform="translate(438,370)"/>
<path d="M0 0 C0.66 0 1.32 0 2 0 C1.49427776 3.96149091 0.88634791 7.89155827 0.125 11.8125 C-0.01679688 12.56144531 -0.15859375 13.31039062 -0.3046875 14.08203125 C-1 16 -1 16 -4 18 C-5.60415783 13.18752651 -5.57681817 9.38960741 -3.625 4.6875 C-2 2 -2 2 0 0 Z " fill="#259FF3" transform="translate(437,112)"/>
<path d="M0 0 C0.66 0 1.32 0 2 0 C1.49427776 3.96149091 0.88634791 7.89155827 0.125 11.8125 C-0.01679688 12.56144531 -0.15859375 13.31039062 -0.3046875 14.08203125 C-1 16 -1 16 -4 18 C-5.60415783 13.18752651 -5.57681817 9.38960741 -3.625 4.6875 C-2 2 -2 2 0 0 Z " fill="#25A0F4" transform="translate(245,38)"/>
<path d="M0 0 C0.20218605 3.84153488 -0.12498006 7.46698456 -0.75 11.25 C-0.88921875 12.10078125 -1.0284375 12.9515625 -1.171875 13.828125 C-2 16 -2 16 -4.078125 17.296875 C-4.71234375 17.52890625 -5.3465625 17.7609375 -6 18 C-6.86110202 6.17419895 -6.86110202 6.17419895 -3.5625 2.25 C-1 0 -1 0 0 0 Z " fill="#24A2F9" transform="translate(55,109)"/>
<path d="M0 0 C0.66 0 1.32 0 2 0 C2.48667297 6.00230002 0.69882978 11.31700989 -1 17 C-1.99 17 -2.98 17 -4 17 C-4.68844492 6.25260979 -4.68844492 6.25260979 -2.125 2.3125 C-1.42375 1.549375 -0.7225 0.78625 0 0 Z " fill="#24A1F8" transform="translate(89,30)"/>
<path d="M0 0 C2 3 2 3 1.7578125 5.26171875 C1.54898437 6.06222656 1.34015625 6.86273438 1.125 7.6875 C0.92132813 8.49574219 0.71765625 9.30398438 0.5078125 10.13671875 C0.25644531 11.05904297 0.25644531 11.05904297 0 12 C-0.66 12 -1.32 12 -2 12 C-1.96744792 10.01432292 -1.93489583 8.02864583 -1.90234375 6.04296875 C-1.91736783 3.79694539 -1.91736783 3.79694539 -3 1 C-2.01 0.67 -1.02 0.34 0 0 Z " fill="#0088FD" transform="translate(435,470)"/>
</svg>
